<svg width="31" height="37" viewBox="0 0 31 37" fill="none" xmlns="http://www.w3.org/2000/svg">
<path d="M15.5 0.833344C16.0857 0.833344 16.6474 1.06601 17.0615 1.48015C17.4757 1.89429 17.7083 2.45599 17.7083 3.04168V28.6274L27.1887 19.1471C27.6052 18.7448 28.163 18.5222 28.742 18.5272C29.3211 18.5323 29.8749 18.7645 30.2844 19.174C30.6938 19.5834 30.9261 20.1373 30.9311 20.7163C30.9361 21.2953 30.7136 21.8531 30.3113 22.2696L17.0613 35.5196C16.6472 35.9336 16.0856 36.1662 15.5 36.1662C14.9144 36.1662 14.3528 35.9336 13.9387 35.5196L0.688705 22.2696C0.477787 22.0659 0.309551 21.8222 0.193814 21.5528C0.0780775 21.2834 0.0171578 20.9936 0.0146097 20.7004C0.0120617 20.4072 0.0679359 20.1164 0.178973 19.845C0.29001 19.5736 0.453985 19.327 0.661332 19.1197C0.868678 18.9123 1.11524 18.7484 1.38664 18.6373C1.65804 18.5263 1.94883 18.4704 2.24205 18.473C2.53527 18.4755 2.82505 18.5364 3.09447 18.6522C3.3639 18.7679 3.60758 18.9361 3.81129 19.1471L13.2917 28.6274V3.04168C13.2917 2.45599 13.5243 1.89429 13.9385 1.48015C14.3526 1.06601 14.9143 0.833344 15.5 0.833344Z" fill="#F9F9F9"/>
</svg>
